<svg viewBox="0 0 36 36" xmlns="http://www.w3.org/2000/svg"><path d="m30 12h-24v-7c0-1.105.826-2 1.846-2h20.309c1.018 0 1.845.895 1.845 2zm0 19c0 1.104-.896 2-2 2h-20c-1.104 0-2-.896-2-2v-3h24z" fill="#67757f"/><path d="m27 12h-18v-10c0-1.105.896-2 2-2h14c1.104 0 2 .896 2 2z" fill="#e1e8ed"/><path d="m34 25c0 1-1 3-3 3h-26c-2 0-3-2-3-3v-9c0-2.209 1.791-4 4-4h24c2.209 0 4 1.791 4 4z" fill="#5dadec"/><path d="m30 25c0-1.104-.978-2-2.182-2h-19.636c-1.205 0-2.182.896-2.182 2v4h24z" fill="#292f33"/><path d="m30 15c0 1.104-.896 2-2 2h-20c-1.104 0-2-.896-2-2v-4h24z" fill="#4289c1"/><path d="m27 34c0 1.104-.896 2-2 2h-14c-1.104 0-2-.896-2-2v-8h18z" fill="#e1e8ed"/><path d="m25 29c0 .553-.447 1-1 1h-12c-.552 0-1-.447-1-1s.448-1 1-1h12c.553 0 1 .447 1 1z" fill="#9aaab4"/><circle cx="30.5" cy="19.5" fill="#f5f8fa" r="1.5"/><path d="m25 32c0 .553-.447 1-1 1h-12c-.552 0-1-.447-1-1s.448-1 1-1h12c.553 0 1 .447 1 1zm-16-7h18v2h-18z" fill="#9aaab4"/></svg>