<svg enable-background="new 0 0 512 512" viewBox="0 0 512 512" xmlns="http://www.w3.org/2000/svg"><path d="m201.619 249.788v99.227h48.148v-85.051z" fill="#c5c5ca"/><path d="m421.98 204.069h50.442v72.219h-50.442z" fill="#88888f" transform="matrix(-.9798 -.1998 .1998 -.9798 837.3937 564.8685)"/><path d="m59.139 161.044-14.429 70.767 377.42 76.95 24.046-117.944z" fill="#d8d8da"/><path d="m410.065 190.817-22.606 110.875 34.671 7.069 24.046-117.944z" fill="#c5c5ca"/><path d="m273.841 421.237h-264.813v-72.222h264.813c19.943 0 36.111 16.167 36.111 36.111 0 19.944-16.168 36.111-36.111 36.111z" fill="#d8d8da"/><path d="m273.841 349.015h-48.148c19.944 0 36.111 16.168 36.111 36.111 0 19.944-16.167 36.111-36.111 36.111h48.148c19.944 0 36.111-16.167 36.111-36.111 0-19.943-16.167-36.111-36.111-36.111z" fill="#c5c5ca"/><path d="m59.139 161.044 330.242 67.332 113.591-75.117-424.596-86.569z" fill="#ededed"/><path d="m78.376 66.69-4.758 23.337 369.169 75.269-85.496 56.537 32.088 6.543 113.593-75.117z" fill="#d8d8da"/><path d="m9.028 454.339c-4.987 0-9.028-4.042-9.028-9.028v-120.37c0-4.986 4.041-9.028 9.028-9.028s9.028 4.042 9.028 9.028v120.37c-.001 4.985-4.041 9.028-9.028 9.028z" fill="#ededed"/><path d="m511.834 151.539c-.695-3.585-3.481-6.396-7.059-7.126l-424.597-86.569c-2.346-.48-4.785-.006-6.783 1.316-1.997 1.32-3.388 3.381-3.866 5.727l-33.664 165.121c-.997 4.886 2.157 9.654 7.043 10.649l149.683 30.517v68.813h-174.536v-15.046c0-4.986-4.041-9.028-9.028-9.028s-9.027 4.042-9.027 9.028v120.37c0 4.986 4.041 9.028 9.028 9.028s9.028-4.042 9.028-9.028v-15.046h255.786c24.89 0 45.139-20.249 45.139-45.139s-20.249-45.139-45.139-45.139h-15.046v-55.315l161.53 32.933c.608.124 1.215.184 1.813.184 4.201 0 7.964-2.949 8.836-7.226l5.411-26.538 26.538 5.411c.608.124 1.215.184 1.813.184 4.201 0 7.964-2.949 8.836-7.226l14.427-70.764c.997-4.886-2.157-9.654-7.043-10.649l-25.822-5.265 52.816-34.926c3.045-2.016 4.579-5.667 3.883-9.251zm-210.91 233.587c0 14.934-12.15 27.083-27.083 27.083h-255.786v-54.166h255.786c14.933 0 27.083 12.15 27.083 27.083zm-60.184-45.139h-30.092v-65.132l30.092 6.135zm-185.381-115.218 10.821-53.075 321.396 65.527c.598.123 1.201.182 1.803.182 1.757 0 3.491-.514 4.98-1.497l38.617-25.536-17.889 87.742zm402.324 45.173-17.691-3.607 10.821-53.075 17.691 3.606zm-70.165-51.159-317.73-64.781 15.63-76.664 394.394 80.411z" fill="#2e2d31"/></svg>