<svg height="96" width="96" xmlns="http://www.w3.org/2000/svg" xmlns:xlink="http://www.w3.org/1999/xlink"><linearGradient id="a" gradientUnits="userSpaceOnUse" x1="36.357143" x2="36.357143" y1="6" y2="63.893143"><stop offset="0" stop-color="#fefefe"/><stop offset="1" stop-color="#fefefe" stop-opacity="0"/></linearGradient><linearGradient id="b" gradientUnits="userSpaceOnUse" x1="48" x2="48" y1="90" y2="5.987717"><stop offset="0" stop-color="#0b5587"/><stop offset="1" stop-color="#138bdd"/></linearGradient><linearGradient id="c" gradientTransform="matrix(1.0058652 0 0 .994169 100 0)" gradientUnits="userSpaceOnUse" x1="45.447727" x2="45.447727" y1="92.539597" y2="7.01654"><stop offset="0"/><stop offset="1" stop-opacity=".588235"/></linearGradient><linearGradient id="d" gradientTransform="matrix(1.0238095 0 0 1.0119048 -1.142857 -98.071429)" gradientUnits="userSpaceOnUse" x1="32.251034" x2="32.251034" xlink:href="#c" y1="6.131708" y2="90.238609"/><linearGradient id="e" gradientTransform="translate(0 -97)" gradientUnits="userSpaceOnUse" x1="32.251034" x2="32.251034" xlink:href="#c" y1="6.131708" y2="90.238609"/><linearGradient id="f" gradientUnits="userSpaceOnUse" x1="6" x2="90" y1="48.171875" y2="48.171875"><stop offset="0" stop-color="#06b5ff"/><stop offset="1" stop-color="#0ff" stop-opacity="0"/></linearGradient><g><g fill="url(#d)"><path d="m12-95.03125c-5.5110903 0-10.03125 4.52016-10.03125 10.03125v71c0 5.5110902 4.5201598 10.03125 10.03125 10.03125h72c5.51109 0 10.03125-4.5201597 10.03125-10.03125v-71c0-5.51109-4.52016-10.03125-10.03125-10.03125z" opacity=".08" transform="scale(1 -1)"/><path d="m12-94.03125c-4.971633 0-9.03125 4.059617-9.03125 9.03125v71c0 4.9716329 4.0596171 9.03125 9.03125 9.03125h72c4.971633 0 9.03125-4.059617 9.03125-9.03125v-71c0-4.971633-4.059617-9.03125-9.03125-9.03125z" opacity=".1" transform="scale(1 -1)"/><path d="m12-93c-4.4091333 0-8 3.590867-8 8v71c0 4.4091333 3.5908667 8 8 8h72c4.409133 0 8-3.5908667 8-8v-71c0-4.409133-3.590867-8-8-8z" opacity=".2" transform="scale(1 -1)"/><rect height="85" opacity=".3" rx="7" transform="scale(1 -1)" width="86" x="5" y="-92"/></g><rect fill="url(#e)" height="84" opacity=".45" rx="6" transform="scale(1 -1)" width="84" x="6" y="-91"/></g><rect fill="url(#b)" height="84" rx="6" width="84" x="6" y="6"/><path d="m12 6c-3.324 0-6 2.676-6 6v2 68 2c0 .334721.04135.6507.09375.96875.0487.295596.09704.596915.1875.875.00988.03038.020892.0636.03125.09375.098865.287771.2348802.547452.375.8125.1445918.273507.3156161.535615.5.78125s.3737765.473472.59375.6875c.439947.428056.94291.814526 1.5 1.09375.278545.139612.5734731.246947.875.34375-.2562018-.100222-.4867109-.236272-.71875-.375-.00741-.0044-.023866.0045-.03125 0-.031933-.0193-.062293-.04251-.09375-.0625-.120395-.0767-.2310226-.163513-.34375-.25-.1061728-.0808-.2132809-.161112-.3125-.25-.1779299-.161433-.3474596-.345388-.5-.53125-.1075789-.130255-.2183939-.265285-.3125-.40625-.025089-.03838-.038446-.08587-.0625-.125-.064763-.103032-.1302275-.204517-.1875-.3125-.1010083-.194706-.2056748-.415701-.28125-.625-.00796-.02181-.023589-.04055-.03125-.0625-.0318251-.09195-.0358045-.186831-.0625-.28125-.0303323-.106618-.0703894-.203031-.09375-.3125-.0728786-.341512-.125-.698205-.125-1.0625v-2-68-2c0-2.781848 2.2181517-5 5-5h2 68 2c2.781848 0 5 2.218152 5 5v2 68 2c0 .364295-.05212.720988-.125 1.0625-.04415.206893-.08838.397658-.15625.59375-.0077.02195-.0233.04069-.03125.0625-.06274.173739-.138383.367449-.21875.53125-.04158.0828-.07904.169954-.125.25-.0546.09721-.126774.18835-.1875.28125-.09411.140965-.204921.275995-.3125.40625-.143174.17445-.303141.346998-.46875.5-.01117.0102-.01998.02115-.03125.03125-.138386.125556-.285091.234436-.4375.34375-.102571.07315-.204318.153364-.3125.21875-.0074.0045-.02384-.0044-.03125 0-.232039.138728-.462548.274778-.71875.375.301527-.0968.596455-.204138.875-.34375.55709-.279224 1.060053-.665694 1.5-1.09375.219973-.214028.409366-.441865.59375-.6875s.355408-.507743.5-.78125c.14012-.265048.276135-.524729.375-.8125.01041-.03078.02133-.06274.03125-.09375.09046-.278085.1388-.579404.1875-.875.0524-.31805.09375-.634029.09375-.96875v-2-68-2c0-3.324-2.676-6-6-6z" fill="url(#a)" opacity=".35"/><path d="m12 90c-3.324 0-6-2.676-6-6v-2-68-2c0-.334721.04135-.6507.09375-.96875.0487-.295596.09704-.596915.1875-.875.00988-.03038.020892-.0636.03125-.09375.098865-.287771.2348802-.547452.375-.8125.1445918-.273507.3156161-.535615.5-.78125s.3737765-.473472.59375-.6875c.439947-.428056.94291-.814526 1.5-1.09375.278545-.139612.5734731-.246947.875-.34375-.2562018.100222-.4867109.236272-.71875.375-.00741.0044-.023866-.0045-.03125 0-.031933.0193-.062293.04251-.09375.0625-.120395.0767-.2310226.163513-.34375.25-.1061728.0808-.2132809.161112-.3125.25-.1779299.161433-.3474596.345388-.5.53125-.1075789.130255-.2183939.265285-.3125.40625-.025089.03838-.038446.08587-.0625.125-.064763.103032-.1302275.204517-.1875.3125-.1010083.194706-.2056748.415701-.28125.625-.00796.02181-.023589.04055-.03125.0625-.0318251.09195-.0358045.186831-.0625.28125-.0303323.106618-.0703894.203031-.09375.3125-.0728786.341512-.125.698205-.125 1.0625v2 68 2c0 2.781848 2.2181517 5 5 5h2 68 2c2.781848 0 5-2.218152 5-5v-2-68-2c0-.364295-.05212-.720988-.125-1.0625-.04415-.206893-.08838-.397658-.15625-.59375-.0077-.02195-.0233-.04069-.03125-.0625-.06274-.173739-.138383-.367449-.21875-.53125-.04158-.0828-.07904-.169954-.125-.25-.0546-.09721-.126774-.18835-.1875-.28125-.09411-.140965-.204921-.275995-.3125-.40625-.143174-.17445-.303141-.346998-.46875-.5-.01117-.0102-.01998-.02115-.03125-.03125-.138386-.125556-.285091-.234436-.4375-.34375-.102571-.07315-.204318-.153364-.3125-.21875-.0074-.0045-.02384.0044-.03125 0-.232039-.138728-.462548-.274778-.71875-.375.301527.0968.596455.204138.875.34375.55709.279224 1.060053.665694 1.5 1.09375.219973.214028.409366.441865.59375.6875s.355408.507743.5.78125c.14012.265048.276135.524729.375.8125.01041.03078.02133.06274.03125.09375.09046.278085.1388.579404.1875.875.0524.31805.09375.634029.09375.96875v2 68 2c0 3.324-2.676 6-6 6z" fill="url(#f)" opacity=".213"/><path d="m48.039535 31.514843c-7.255711 0-13.405528 4.918892-15.31156 11.58344-1.656541-3.534978-5.246324-6.011529-9.381131-6.011529-5.686334 0-10.360652 4.674318-10.360652 10.360652 0 5.686329 4.674318 10.362779 10.360652 10.362779 4.134807 0 7.72459-2.478064 9.381131-6.013655 1.906032 6.665045 8.055849 11.585572 15.31156 11.585572 7.202054 0 13.320514-4.846319 15.275291-11.43619 1.687156 3.45533 5.232507 5.864273 9.308581 5.864273 5.686335 0 10.362785-4.67645 10.362785-10.362779 0-5.686334-4.67645-10.360652-10.362785-10.360652-4.076074 0-7.621425 2.407431-9.308581 5.862146-1.954777-6.589361-8.073237-11.434057-15.275291-11.434057zm0 6.081945c5.477241 0 9.852763 4.373395 9.852763 9.850618s-4.375522 9.852751-9.852763 9.852751c-5.477211 0-9.850606-4.375528-9.850606-9.852751s4.373395-9.850618 9.850606-9.850618zm-24.692691 5.571918c2.399694 0 4.280834 1.878995 4.280834 4.2787 0 2.399699-1.88114 4.280834-4.280834 4.280834-2.399706 0-4.278707-1.881135-4.278707-4.280834 0-2.399705 1.879001-4.2787 4.278707-4.2787zm49.276563 0c2.399711 0 4.280834 1.878995 4.280834 4.2787 0 2.399699-1.881134 4.280834-4.280834 4.280834-2.399694 0-4.278695-1.881135-4.278695-4.280834 0-2.399705 1.879014-4.2787 4.278695-4.2787z" fill="#fefefe"/><g fill="#fff" fill-opacity=".196078"><path d="m17 14.5a2.5 2.5 0 0 1 -5 0 2.5 2.5 0 1 1 5 0z"/><path d="m24.030384 14.501107a2.5 2.5 0 0 1 -5 0 2.5 2.5 0 1 1 5 0z"/><path d="m31.035656 14.498893a2.5 2.5 0 0 1 -5 0 2.5 2.5 0 1 1 5 0z"/><path d="m38.06604 14.5a2.5 2.5 0 0 1 -5 0 2.5 2.5 0 1 1 5 0z"/><path d="m45 14.498893a2.5 2.5 0 0 1 -5 0 2.5 2.5 0 1 1 5 0z"/><path d="m59.035656 14.497786a2.5 2.5 0 0 1 -5 0 2.5 2.5 0 1 1 5 0z"/><path d="m66.06604 14.498893a2.5 2.5 0 0 1 -5 0 2.5 2.5 0 1 1 5 0z"/><path d="m24.030384 21.5a2.5 2.5 0 0 1 -5 0 2.5 2.5 0 1 1 5 0z"/><path d="m38.06604 21.498893a2.5 2.5 0 0 1 -5 0 2.5 2.5 0 1 1 5 0z"/><path d="m45 21.497786a2.5 2.5 0 0 1 -5 0 2.5 2.5 0 1 1 5 0z"/><path d="m52.030384 21.498893a2.5 2.5 0 0 1 -5 0 2.5 2.5 0 1 1 5 0z"/><path d="m59.035656 21.496679a2.5 2.5 0 0 1 -5 0 2.5 2.5 0 1 1 5 0z"/><path d="m17 28.498893a2.5 2.5 0 0 1 -5 0 2.5 2.5 0 1 1 5 0z"/><path d="m24.030384 28.5a2.5 2.5 0 0 1 -5 0 2.5 2.5 0 1 1 5 0z"/><path d="m31.035656 28.497786a2.5 2.5 0 0 1 -5 0 2.5 2.5 0 1 1 5 0z"/><path d="m63 67.498893a2.5 2.5 0 0 1 -5 0 2.5 2.5 0 1 1 5 0z"/><path d="m70.030384 67.5a2.5 2.5 0 0 1 -5 0 2.5 2.5 0 1 1 5 0z"/><path d="m77.035656 67.497786a2.5 2.5 0 0 1 -5 0 2.5 2.5 0 1 1 5 0z"/><path d="m84.066041 67.498893a2.5000005 2.5000005 0 0 1 -5.000001 0 2.5000005 2.5000005 0 1 1 5.000001 0z"/><path d="m35 74.498893a2.5 2.5 0 0 1 -5 0 2.5 2.5 0 1 1 5 0z"/><path d="m42.030384 74.5a2.5 2.5 0 0 1 -5 0 2.5 2.5 0 1 1 5 0z"/><path d="m56.06604 74.498893a2.5 2.5 0 0 1 -5 0 2.5 2.5 0 1 1 5 0z"/><path d="m63 74.497786a2.5 2.5 0 0 1 -5 0 2.5 2.5 0 1 1 5 0z"/><path d="m84.066041 74.497786a2.5000005 2.5000005 0 0 1 -5.000001 0 2.5000005 2.5000005 0 1 1 5.000001 0z"/><path d="m42.030384 81.5a2.5 2.5 0 0 1 -5 0 2.5 2.5 0 1 1 5 0z"/><path d="m49.035656 81.497786a2.5 2.5 0 0 1 -5 0 2.5 2.5 0 1 1 5 0z"/><path d="m63 81.497786a2.5 2.5 0 0 1 -5 0 2.5 2.5 0 1 1 5 0z"/><path d="m70.030384 81.498893a2.5 2.5 0 0 1 -5 0 2.5 2.5 0 1 1 5 0z"/><path d="m77.035656 81.496679a2.5 2.5 0 0 1 -5 0 2.5 2.5 0 1 1 5 0z"/><path d="m84.066041 81.497786a2.5000005 2.5000005 0 0 1 -5.000001 0 2.5000005 2.5000005 0 1 1 5.000001 0z"/></g></svg>