<svg viewBox="0 0 400 300" xmlns="http://www.w3.org/2000/svg"><rect fill="#68e1fd" height="53.58" rx="3.61" width="70.63" x="164.69" y="62.48"/><path d="m231.7 117.06h-63.4a4.62 4.62 0 0 1 -4.61-4.61v-46.36a4.62 4.62 0 0 1 4.61-4.61h63.4a4.62 4.62 0 0 1 4.61 4.61v46.36a4.62 4.62 0 0 1 -4.61 4.61zm-63.4-53.58a2.61 2.61 0 0 0 -2.61 2.61v46.36a2.61 2.61 0 0 0 2.61 2.61h63.4a2.61 2.61 0 0 0 2.61-2.61v-46.36a2.61 2.61 0 0 0 -2.61-2.61z" fill="#093f68"/><path d="m190.24 116.06h21.83v7.81h-21.83z" fill="#093f68"/><path d="m212.07 124.87h-21.83a1 1 0 0 1 -1-1v-7.81a1 1 0 0 1 1-1h21.83a1 1 0 0 1 1 1v7.81a1 1 0 0 1 -1 1zm-20.83-2h19.83v-5.81h-19.83z" fill="#093f68"/><rect fill="#68e1fd" height="4.61" rx="2.19" width="34.8" x="183.22" y="123.25"/><path d="m215.83 128.86h-30.41a3.2 3.2 0 0 1 -3.2-3.2v-.22a3.2 3.2 0 0 1 3.2-3.19h30.41a3.19 3.19 0 0 1 3.19 3.19v.22a3.19 3.19 0 0 1 -3.19 3.2zm-30.41-4.61a1.19 1.19 0 0 0 -1.2 1.19v.22a1.2 1.2 0 0 0 1.2 1.2h30.41a1.2 1.2 0 0 0 1.19-1.2v-.22a1.19 1.19 0 0 0 -1.19-1.19z" fill="#093f68"/><path d="m168.77 67.26h62.46v37.93h-62.46z" fill="#fff"/><path d="m231.23 106.18h-62.46a1 1 0 0 1 -1-1v-37.92a1 1 0 0 1 1-1h62.46a1 1 0 0 1 1 1v37.92a1 1 0 0 1 -1 1zm-61.46-2h60.46v-35.92h-60.46z" fill="#093f68"/><rect fill="#68e1fd" height="53.58" rx="3.61" width="70.63" x="110.61" y="172.14"/><path d="m177.62 226.72h-63.4a4.61 4.61 0 0 1 -4.61-4.61v-46.36a4.61 4.61 0 0 1 4.61-4.61h63.4a4.62 4.62 0 0 1 4.61 4.61v46.36a4.62 4.62 0 0 1 -4.61 4.61zm-63.4-53.58a2.61 2.61 0 0 0 -2.61 2.61v46.36a2.61 2.61 0 0 0 2.61 2.61h63.4a2.61 2.61 0 0 0 2.61-2.61v-46.36a2.61 2.61 0 0 0 -2.61-2.61z" fill="#093f68"/><path d="m136.16 225.72h21.83v7.81h-21.83z" fill="#093f68"/><path d="m158 234.53h-21.84a1 1 0 0 1 -1-1v-7.81a1 1 0 0 1 1-1h21.84a1 1 0 0 1 1 1v7.81a1 1 0 0 1 -1 1zm-20.82-2h19.82v-5.81h-19.84z" fill="#093f68"/><rect fill="#68e1fd" height="4.61" rx="2.19" width="34.8" x="129.14" y="232.91"/><path d="m161.74 238.52h-30.41a3.19 3.19 0 0 1 -3.19-3.19v-.23a3.19 3.19 0 0 1 3.19-3.19h30.41a3.2 3.2 0 0 1 3.2 3.19v.23a3.2 3.2 0 0 1 -3.2 3.19zm-30.41-4.61a1.19 1.19 0 0 0 -1.19 1.19v.23a1.19 1.19 0 0 0 1.19 1.19h30.41a1.19 1.19 0 0 0 1.2-1.19v-.23a1.19 1.19 0 0 0 -1.2-1.19z" fill="#093f68"/><path d="m114.69 176.92h62.46v37.93h-62.46z" fill="#fff"/><path d="m177.15 215.85h-62.46a1 1 0 0 1 -1-1v-37.93a1 1 0 0 1 1-1h62.46a1 1 0 0 1 1 1v37.93a1 1 0 0 1 -1 1zm-61.46-2h60.46v-35.93h-60.46z" fill="#093f68"/><rect fill="#68e1fd" height="53.58" rx="3.61" width="70.63" x="218.77" y="172.14"/><path d="m285.78 226.72h-63.4a4.62 4.62 0 0 1 -4.61-4.61v-46.36a4.62 4.62 0 0 1 4.61-4.61h63.4a4.61 4.61 0 0 1 4.61 4.61v46.36a4.61 4.61 0 0 1 -4.61 4.61zm-63.4-53.58a2.61 2.61 0 0 0 -2.61 2.61v46.36a2.61 2.61 0 0 0 2.61 2.61h63.4a2.61 2.61 0 0 0 2.61-2.61v-46.36a2.61 2.61 0 0 0 -2.61-2.61z" fill="#093f68"/><path d="m244.32 225.72h21.83v7.81h-21.83z" fill="#093f68"/><path d="m266.15 234.53h-21.83a1 1 0 0 1 -1-1v-7.81a1 1 0 0 1 1-1h21.83a1 1 0 0 1 1 1v7.81a1 1 0 0 1 -1 1zm-20.83-2h19.83v-5.81h-19.83z" fill="#093f68"/><rect fill="#68e1fd" height="4.61" rx="2.19" width="34.8" x="237.3" y="232.91"/><path d="m269.91 238.52h-30.41a3.2 3.2 0 0 1 -3.2-3.19v-.23a3.2 3.2 0 0 1 3.2-3.19h30.41a3.19 3.19 0 0 1 3.19 3.19v.23a3.19 3.19 0 0 1 -3.19 3.19zm-30.41-4.61a1.19 1.19 0 0 0 -1.2 1.19v.23a1.19 1.19 0 0 0 1.2 1.19h30.41a1.19 1.19 0 0 0 1.19-1.19v-.23a1.19 1.19 0 0 0 -1.19-1.19z" fill="#093f68"/><path d="m222.85 176.92h62.46v37.93h-62.46z" fill="#fff"/><g fill="#093f68"><path d="m285.31 215.85h-62.46a1 1 0 0 1 -1-1v-37.93a1 1 0 0 1 1-1h62.46a1 1 0 0 1 1 1v37.93a1 1 0 0 1 -1 1zm-61.46-2h60.46v-35.93h-60.46z"/><path d="m255.24 166.83a1 1 0 0 1 -1-1v-8.46c0-3.29-3.5-6-7.8-6h-92.88c-4.3 0-7.8 2.68-7.8 6v8.46a1 1 0 1 1 -2 0v-8.46c0-4.4 4.4-8 9.8-8h92.88c5.4 0 9.8 3.57 9.8 8v8.46a1 1 0 0 1 -1 1z"/><circle cx="200" cy="150.39" r="5.77"/><path d="m200 157.16a6.77 6.77 0 1 1 6.77-6.76 6.77 6.77 0 0 1 -6.77 6.76zm0-11.53a4.77 4.77 0 1 0 4.77 4.77 4.78 4.78 0 0 0 -4.77-4.77z"/><path d="m199.9 145.63a1 1 0 0 1 -1-1c.18-5.11.27-10.79.14-12.05a1 1 0 0 1 .15-1.22 1.07 1.07 0 0 1 1.14-.22c.75.33 1 .45.57 13.56a1 1 0 0 1 -1 .93z"/></g></svg>