<svg viewBox="0 0 48 48" xmlns="http://www.w3.org/2000/svg"><path d="m12 17v-9a1 1 0 0 1 2 0v9a1 1 0 0 1 -2 0z" fill="#2d98f6"/><path d="m34 17v-9a1 1 0 0 1 2 0v9a1 1 0 0 1 -2 0z" fill="#2d98f6"/><rect fill="#48bdff" height="13" rx="4" width="40" x="4" y="27"/><circle cx="37.5" cy="33.5" fill="#ebf3fe" r="2.5"/><path d="m8 31h11v5h-11z" fill="#ebf3fe"/><g fill="#2d98f6"><path d="m26 35v-3a1 1 0 0 1 2 0v3a1 1 0 0 1 -2 0z"/><path d="m22 35v-3a1 1 0 0 1 2 0v3a1 1 0 0 1 -2 0z"/><path d="m30 35v-3a1 1 0 0 1 2 0v3a1 1 0 0 1 -2 0z"/></g><path d="m15 27h-4v-8a2 2 0 0 1 4 0z" fill="#b9d5ea"/><path d="m37 27h-4v-8a2 2 0 0 1 4 0z" fill="#b9d5ea"/></svg>