<svg fill="none" height="24" viewBox="0 0 24 24" width="24" xmlns="http://www.w3.org/2000/svg"><g fill="#1c274c"><path clip-rule="evenodd" d="m2.58579 12.3358c-.58579.5858-.58579 1.5286-.58579 3.4142s0 2.8284.58579 3.4142c.58578.5858 1.52859.5858 3.41421.5858h12c1.8856 0 2.8284 0 3.4142-.5858s.5858-1.5286.5858-3.4142 0-2.8284-.5858-3.4142-1.5286-.5858-3.4142-.5858h-12c-1.88562 0-2.82843 0-3.41421.5858zm3.41421 4.4142c.55228 0 1-.4477 1-1s-.44772-1-1-1-1 .4477-1 1 .44772 1 1 1zm4-1c0 .5523-.44772 1-1 1s-1-.4477-1-1 .44772-1 1-1 1 .4477 1 1zm4-.75c-.4142 0-.75.3358-.75.75s.3358.75.75.75h4c.4142 0 .75-.3358.75-.75s-.3358-.75-.75-.75z" fill-rule="evenodd"/><path d="m3.65131 4.37802c-.20551-.35963-.66365-.48458-1.02329-.27907-.35963.2055-.48458.66364-.27907 1.02328l3.78729 6.62777h1.72361l-.20854-.372z" opacity=".5"/><path d="m20.3492 4.37802c.2055-.35963.6636-.48458 1.0232-.27907.3597.2055.4846.66364.2791 1.02328l-3.7873 6.62777h-1.7236l.2086-.372z" opacity=".5"/><path clip-rule="evenodd" d="m12.0838 3.5c-1.9789 0-3.67684 1.21031-4.39068 2.93399-.15848.38269-.5972.56445-.97989.40596s-.56445-.5972-.40596-.9799c.93788-2.26465 3.17002-3.86005 5.77653-3.86005 2.6066 0 4.8387 1.5954 5.7766 3.86005.1585.3827-.0233.82141-.406.9799s-.8214-.02327-.9799-.40596c-.7138-1.72367-2.4118-2.93399-4.3907-2.93399z" fill-rule="evenodd" opacity=".4"/><path clip-rule="evenodd" d="m12.0846 6c-1.0224 0-1.8873.68244-2.16033 1.6182-.11603.39763-.53244.62591-.93007.50988s-.62591-.53244-.50988-.93007c.45474-1.55832 1.89338-2.69801 3.60028-2.69801 1.7068 0 3.1455 1.13969 3.6002 2.69801.116.39763-.1123.81404-.5099.93007s-.814-.11225-.9301-.50988c-.273-.93576-1.1379-1.6182-2.1602-1.6182z" fill-rule="evenodd" opacity=".7"/><path d="m13.084 7.75c0 .55228-.4477 1-1 1s-1-.44772-1-1 .4477-1 1-1 1 .44772 1 1z"/></g></svg>