<svg height="100" viewBox="0 0 100 100" width="100" xmlns="http://www.w3.org/2000/svg"><rect fill="#19486f" height="53" rx="9.12" width="53" x="23.5" y="25.99"/><g fill="#2e73b8"><rect height="53" rx="9.12" width="53" x="23.5" y="23.51"/><path d="m60 14.4h4v13.65h-4z"/><path d="m36 14.4h4v13.65h-4z"/><path d="m54 14.4h4v13.65h-4z"/><path d="m42 14.4h4v13.65h-4z"/><path d="m48 14.4h4v13.65h-4z"/><path d="m14.4 60h18.1v4h-18.1z"/><path d="m14.4 42h18.1v4h-18.1z"/><path d="m14.4 54h18.1v4h-18.1z"/><path d="m14.4 48h18.1v4h-18.1z"/><path d="m14.4 36h18.1v4h-18.1z"/><path d="m36 69.88h4v15.72h-4z"/><path d="m60 69.88h4v15.72h-4z"/><path d="m42 69.88h4v15.72h-4z"/><path d="m54 69.88h4v15.72h-4z"/><path d="m48 69.88h4v15.72h-4z"/><path d="m69.67 54h15.94v4h-15.94z"/><path d="m69.67 36h15.94v4h-15.94z"/><path d="m69.67 48h15.94v4h-15.94z"/><path d="m69.67 42h15.94v4h-15.94z"/><path d="m69.67 60h15.94v4h-15.94z"/></g><rect fill="#fff" height="38.58" rx="2" width="21.7" x="39.15" y="32.15"/><circle cx="50" cy="43.32" fill="#fff" r="7.49"/><path d="m50 51.81a8.49 8.49 0 1 1 8.49-8.49 8.5 8.5 0 0 1 -8.49 8.49zm0-15a6.49 6.49 0 1 0 6.49 6.49 6.5 6.5 0 0 0 -6.49-6.47z" fill="#2e73b8"/><circle cx="50" cy="57.43" fill="#2e73b8" r="2.89"/><path d="m52.89 66.94h-5.78l2.39-10.18h1z" fill="#2e73b8"/></svg>