<svg height="100" viewBox="0 0 100 100" width="100" xmlns="http://www.w3.org/2000/svg"><path d="m60 14.4h4v13.65h-4z" fill="#2e73b8"/><path d="m36 14.4h4v13.65h-4z" fill="#2e73b8"/><path d="m54 14.4h4v13.65h-4z" fill="#2e73b8"/><path d="m42 14.4h4v13.65h-4z" fill="#2e73b8"/><path d="m48 14.4h4v13.65h-4z" fill="#2e73b8"/><circle cx="68.75" cy="72.4" fill="#19486f" r="12.18"/><path d="m68.75 58.22a14.1 14.1 0 0 1 7.75 2.32v-25.41a9.12 9.12 0 0 0 -9.12-9.13h-34.76a9.12 9.12 0 0 0 -9.12 9.12v34.77a9.12 9.12 0 0 0 9.12 9.11h23.59a14.17 14.17 0 0 1 12.54-20.78z" fill="#19486f"/><g fill="#2e73b8"><circle cx="68.75" cy="69.9" r="12.18"/><path d="m68.75 55.72a14.1 14.1 0 0 1 7.75 2.28v-25.37a9.12 9.12 0 0 0 -9.12-9.12h-34.76a9.12 9.12 0 0 0 -9.12 9.12v34.76a9.12 9.12 0 0 0 9.12 9.12h23.59a14.17 14.17 0 0 1 12.54-20.79z"/><path d="m36 69.88h4v15.72h-4z"/><path d="m42 69.88h4v15.72h-4z"/><path d="m48 69.88h4v15.72h-4z"/><path d="m14.4 60h18.1v4h-18.1z"/><path d="m14.4 42h18.1v4h-18.1z"/><path d="m14.4 54h18.1v4h-18.1z"/><path d="m14.4 48h18.1v4h-18.1z"/><path d="m14.4 36h18.1v4h-18.1z"/><path d="m69.67 36h15.94v4h-15.94z"/><path d="m69.67 48h15.94v4h-15.94z"/><path d="m69.67 42h15.94v4h-15.94z"/></g><path d="m68.75 60.22a9.68 9.68 0 0 0 -1.3 19.26h.07v-2a1.32 1.32 0 0 0 -.91-1.25 6.64 6.64 0 1 1 8.7-7.37c.75 4.46-3.3 8.64-7.79 10.64a9.68 9.68 0 1 0 1.24-19.27z" fill="#00b3ff"/></svg>