<svg height="43.381" width="70" xmlns="http://www.w3.org/2000/svg"><path d="m-105.32138 537.43637c-6.38977-.739-11.71217-5.7779-12.82538-12.1422-1.63151-9.3274 5.92809-17.8481 15.35666-17.3089 1.28961.074 3.001082.3899 3.788282.6998.16299.064.34292-.2383.79162-1.3309 1.09162-2.6581 2.68365-5.0015 4.82609-7.1038 3.00179-2.9456 6.53267-4.8393 10.81448-5.8002 1.16641-.2617 1.73883-.3 4.4282-.296h3.088632l1.865469.4902c3.137158.8243 5.739739 2.0795 8.137334 3.9244 4.374906 3.3664 7.330288 8.3967 8.203418 13.9629.343955 2.1927.134853 6.3857-.411487 8.2514l-.125003.4268 1.267264.076c1.592435.095 2.965957.556 4.229931 1.4196 1.233626.843 2.058782 1.8005 2.707618 3.142.676088 1.3979.882716 2.4709.787084 4.0872-.09365 1.5829-.468352 2.69-1.363198 4.0279-1.031124 1.5417-2.505068 2.6213-4.501648 3.2974-.724529.2453-1.74943.2564-25.395414.2734-13.55222.01-25.103702-.036-25.669952-.1012z" fill="#00bcf2" transform="translate(118.369 -494.154)"/></svg>